<svg id="Layer_2" data-name="Layer 2" xmlns="http://www.w3.org/2000/svg" xmlns:xlink="http://www.w3.org/1999/xlink" viewBox="0 0 682 125"><defs><style>.cls-1{isolation:isolate;}.cls-2{fill:#fff;}.cls-3{fill:url(#linear-gradient);}</style><linearGradient id="linear-gradient" x1="139.85" y1="92.16" x2="25.32" y2="-22.37" gradientUnits="userSpaceOnUse"><stop offset="0" stop-color="#f15a24"/><stop offset="1" stop-color="#fbb03b"/></linearGradient></defs><title>logo</title><g class="cls-1"><path class="cls-2" d="M263.12,13.83V92.28h-8.89V13.83H223.69V5.5h70v8.33Z"/><path class="cls-2" d="M298.24,61.46c.28,14.3,8.89,24.57,22.22,24.57a34.28,34.28,0,0,0,18.46-5.28l1.67,7.92a39.09,39.09,0,0,1-20.41,5.41c-18.33,0-30.68-13.74-30.68-33,0-20,12.77-34.16,30-34.16,14,0,23.18,9.17,23.18,23.47a38.93,38.93,0,0,1-1.38,10.13l-43.05.28Zm35.83-7.64A19.91,19.91,0,0,0,334.2,51c0-9.72-5.27-16.38-15.27-16.38-11.38,0-18.74,8.75-20.13,19.3Z"/><path class="cls-2" d="M393.49,92.28l-17.22-26.8-17.08,26.8h-9.72l21.94-32.63-20.55-31h9.58L376.27,53.4l15.55-24.71h9.58L381.13,59.37l21.94,32.91Z"/><path class="cls-2" d="M457.35,69.79c0-10.14-8.33-14.17-21.93-18.19C423.2,48,410.15,42.71,410.15,27.3c0-13.74,11.66-23.6,27.77-23.6A47.64,47.64,0,0,1,464,11.2L460.82,19a42.09,42.09,0,0,0-22.77-7.22c-13.05,0-19.29,6.94-19.29,14.86,0,9.58,8.6,13.19,21.93,17.35,12.5,3.75,25.13,9.44,25.13,25.13,0,14.3-11.94,25-29.29,25a52.14,52.14,0,0,1-27.91-8l3.19-7.91a43.64,43.64,0,0,0,25,8C448.88,86.17,457.35,79,457.35,69.79Z"/><path class="cls-2" d="M508.17,94.08c-17.64,0-30.69-13-30.69-33.46s13.61-33.74,31.38-33.74,30.55,13.06,30.55,33.47S525.8,94.08,508.17,94.08Zm.28-59.42c-13.47,0-22.36,10.69-22.36,25.69,0,15.55,9,26,22.49,26s22.36-10.69,22.36-25.69C530.94,45.07,521.91,34.66,508.45,34.66Z"/><path class="cls-2" d="M563.42,28.69v41.1c0,11.1,4.45,16.1,13.75,16.1,7.36,0,14.44-3.75,19.58-9V28.69h8.6V92.28l-8.6,1.8V83.81c-6.53,6.66-14.86,10.27-21.94,10.27-12.36,0-20-7.91-20-21.79V28.69Z"/><path class="cls-2" d="M652.42,27.3c17.22,0,28.46,13.61,28.46,32.91,0,19.71-13,33.87-31.38,33.87A40.84,40.84,0,0,1,634,90.75v33.88h-8.61V28.41l8.61-1.8v8.47C638.26,31.05,644.65,27.3,652.42,27.3ZM634,81.31c3.88,3,9.85,5,16,5,13.61,0,22.08-11,22.08-26,0-14.72-8.06-25.14-21-25.14A25.64,25.64,0,0,0,634,42.3Z"/></g><path class="cls-3" d="M1,5.18v6A84,84,0,0,0,31.27,75.93v24.7H134.63v-12H43.27v-10H85.48v-12H38.87A72,72,0,0,1,13.26,17.18H157.68a72.13,72.13,0,0,1-27,50.58l7.5,9.36a84.06,84.06,0,0,0,31.69-65.94v-6Z"/></svg>