<?xml version="1.0" standalone="no"?>
<!DOCTYPE svg PUBLIC "-//W3C//DTD SVG 20010904//EN"
 "http://www.w3.org/TR/2001/REC-SVG-20010904/DTD/svg10.dtd">
<svg version="1.0" xmlns="http://www.w3.org/2000/svg"
 width="960.000000pt" height="960.000000pt" viewBox="0 0 960.000000 960.000000"
 preserveAspectRatio="xMidYMid meet">
<metadata>
Created by potrace 1.11, written by Peter Selinger 2001-2013
</metadata>
<g transform="translate(0.000000,960.000000) scale(0.100000,-0.100000)"
fill="#000000" stroke="none">
<path d="M3 7170 c3 -184 8 -355 11 -380 4 -42 15 -144 21 -200 7 -63 42 -275
60 -370 3 -14 7 -34 9 -45 39 -192 170 -623 235 -770 5 -11 19 -45 31 -75 69
-170 182 -397 294 -590 49 -85 92 -157 95 -160 4 -3 22 -30 41 -60 73 -117
260 -367 370 -494 143 -167 443 -462 531 -524 10 -7 19 -23 19 -35 0 -12 0
-29 0 -37 0 -8 1 -80 0 -160 0 -80 0 -154 0 -165 1 -11 0 -112 0 -225 -1 -113
0 -207 1 -210 1 -3 0 -9 -1 -15 -2 -8 -2 -538 0 -568 0 -4 1322 -6 2937 -5
l2937 3 1 337 c0 217 -4 339 -10 341 -5 1 -1172 2 -2592 2 -1421 -1 -2584 2
-2584 5 -9 37 -10 59 -9 145 1 36 -2 69 -5 75 -3 5 -3 10 2 10 9 0 8 83 -1
106 -3 8 -2 14 2 14 7 0 7 70 1 157 -2 23 0 45 3 48 3 3 544 6 1203 7 l1197 0
-5 24 c-2 13 -1 24 2 24 6 0 5 72 -2 125 -2 17 -1 39 3 50 4 11 4 30 -1 42 -5
12 -4 25 0 28 5 3 5 21 1 40 -4 19 -5 35 -1 35 7 0 6 204 -2 225 -4 8 -2 17 2
20 5 2 6 19 2 37 l-7 33 -1320 0 c-1159 0 -1323 2 -1339 15 -89 72 -337 317
-421 415 -113 131 -151 178 -184 225 -13 19 -27 37 -30 40 -3 3 -22 28 -41 55
-18 28 -36 52 -39 55 -33 31 -335 548 -331 567 0 2 -18 42 -40 90 -23 49 -42
93 -43 98 -2 6 -8 21 -13 35 -35 82 -60 150 -100 268 -24 73 -46 141 -48 150
-2 9 -13 51 -24 92 -26 93 -64 264 -76 340 -2 14 -6 39 -9 55 -3 17 -8 50 -11
75 -3 25 -8 56 -10 70 -2 14 -6 57 -10 95 l-6 70 4098 0 4098 -1 -1 -49 c-1
-89 -28 -285 -60 -435 -3 -14 -7 -35 -9 -47 -2 -11 -6 -30 -10 -42 -3 -11 -8
-32 -11 -45 -5 -29 -64 -233 -92 -321 -71 -219 -214 -544 -316 -720 -23 -38
-50 -87 -61 -108 -11 -20 -23 -37 -27 -37 -5 0 -8 -4 -8 -10 0 -26 -176 -277
-316 -452 -127 -157 -300 -340 -434 -458 -30 -27 -66 -58 -80 -70 -14 -12 -40
-34 -57 -47 -31 -24 -42 -47 -25 -55 4 -1 29 -32 57 -68 27 -36 60 -76 71 -90
24 -28 105 -129 144 -180 14 -18 32 -41 40 -50 39 -47 86 -104 92 -113 5 -9
54 24 114 78 7 5 43 37 80 70 90 79 313 302 389 389 33 38 65 74 70 80 30 33
175 217 175 221 0 3 8 15 19 26 10 11 36 45 57 77 21 31 41 59 45 62 3 3 12
16 19 29 7 14 17 30 22 35 23 27 149 234 217 356 81 147 195 388 256 545 15
39 33 84 40 100 7 17 25 68 40 115 16 47 31 90 34 95 3 6 6 15 7 22 2 13 22
79 31 103 3 8 7 20 8 25 2 6 15 57 30 115 15 58 29 113 31 123 12 53 15 65 20
97 3 19 8 39 11 43 2 4 6 20 8 35 2 15 11 70 20 122 9 52 19 113 21 135 1 22
5 49 8 61 2 12 8 57 12 100 3 43 9 93 11 109 2 17 6 183 10 370 l5 340 -4802
0 -4802 0 5 -335z"/>
</g>
</svg>
